<svg id="white_complete_englisch" data-name="white complete englisch" xmlns="http://www.w3.org/2000/svg" viewBox="0 0 3623.28 1500"><defs><style>.cls-1{font-size:555px;font-family:UniversLTStd, Univers LT Std;letter-spacing:-0.03em;}.cls-1,.cls-3{fill:#fff;}.cls-2{fill:#dadada;stroke:#fff;stroke-miterlimit:10;stroke-width:7.5px;}</style></defs><title>logo</title><text class="cls-1" transform="translate(1155.41 911.15)">COLABIS</text><line class="cls-2" x1="830.98" y1="834.12" x2="1486.43" y2="223.78"/><line class="cls-2" x1="1486.43" y1="223.78" x2="2243.15" y2="487.7"/><path class="cls-3" d="M1439,1276.22a47.38,47.38,0,1,1-47.38-47.38A47.38,47.38,0,0,1,1439,1276.22Z"/><path class="cls-3" d="M1533.81,223.78a47.38,47.38,0,1,1-47.38-47.38A47.38,47.38,0,0,1,1533.81,223.78Z"/><circle class="cls-3" cx="2243.15" cy="487.7" r="47.38"/><line class="cls-2" x1="830.98" y1="834.12" x2="1391.67" y2="1276.22"/><line class="cls-2" x1="830.98" y1="834.12" x2="364.84" y2="355.81"/><line class="cls-2" x1="938.72" y1="510.76" x2="787.91" y2="268.78"/><path class="cls-3" d="M831,271.16a47.38,47.38,0,1,1-47.38-47.38A47.38,47.38,0,0,1,831,271.16Z"/><circle class="cls-3" cx="671.76" cy="1158.79" r="47.38"/><circle class="cls-3" cx="364.84" cy="355.81" r="47.38"/><line class="cls-2" x1="830.98" y1="834.12" x2="671.76" y2="1158.79"/><line class="cls-2" x1="783.6" y1="271.16" x2="305.88" y2="712.13"/><path class="cls-3" d="M1059.85,358c-13.74,5.85-16.1,17.34-13.85,34.09,6,27.75,21.75,18,3.59,91.11-16.09,64.8-31.33,99-61.35,111.77-72.37,30.9-112.95.83-183.71-20.5-109.44-33-133.16-107.24-166.3-134.15S567.73,407,530.18,423.06c-48.1,20.54-59.38,64.19-58.63,122.38.23,29.21-1.45,144.28-39.81,221.91-43.73,88.54-224.49,170-259.8,242.14a182.32,182.32,0,0,0,233.2,252c90.54-38.61,133.67-141.87,98.61-233-11-40.34-30-136-.43-240.7C529.1,696.53,662.12,561.36,810.75,597c100,24,133.38,48,150,64.11,3.24,4.64,30,32.54,63.52,18.22,17-7.24,29.91-16.84,35.91-36.08s-14.82-89.38-2.55-156.89c15.37-84.57,22.37-65.32,35.62-86.32,5.75-10.32,6.11-18.54,2.15-27.82A27.09,27.09,0,0,0,1059.85,358Z"/><path class="cls-3" d="M918.11,796.94a94.73,94.73,0,1,1-124.33-50A94.73,94.73,0,0,1,918.11,796.94Z"/><path class="cls-3" d="M360.11,689a59,59,0,1,1-77.36-31.09A59,59,0,0,1,360.11,689Z"/><path class="cls-3" d="M969.7,497.55a33.69,33.69,0,1,1-44.21-17.76A33.67,33.67,0,0,1,969.7,497.55Z"/></svg>